# xmcd
#
# Track frame offsets: 
#        150
#        50316
#        100418
#        155147
#        225387
#        266598
#
# Disc length: 4648 seconds
#
# Revision: 0
# Processed by: cddbd v1.5.2PL0 Copyright (c) Steve Scherf et al.
# Submitted via: ExactAudioCopy v1.0b4
#
DISCID=47122606
DTITLE=Gov't Mule - Sco-Mule [disk 1]
DYEAR=2015
DGENRE=Blues Rock
TTITLE0=Hottentot
TTITLE1=Tom Thumb
TTITLE2=Doing It To Death
TTITLE3=Birth Of The Mule
TTITLE4=Sco-Mule
TTITLE5=Kind Of Bird
EXTD=
EXTT0=
EXTT1=
EXTT2=
EXTT3=
EXTT4=
EXTT5=
PLAYORDER=
